<mxfile host="app.diagrams.net" modified="2023-12-31T12:15:54.696Z" agent="Mozilla/5.0 (X11; Linux x86_64) AppleWebKit/537.36 (KHTML, like Gecko) Chrome/120.0.0.0 Safari/537.36" etag="7f6kVFhdJZT2JIOUVfLT" version="22.1.16" type="device" pages="2">
  <diagram name="Page-1" id="m55ZdG_9oDZAbHWxCkGQ">
    <mxGraphModel dx="1434" dy="779" grid="1" gridSize="10" guides="1" tooltips="1" connect="1" arrows="1" fold="1" page="1" pageScale="1" pageWidth="850" pageHeight="1100" math="0" shadow="0">
      <root>
        <mxCell id="0" />
        <mxCell id="1" parent="0" />
        <mxCell id="DVrDfldoRwxVg5q-NJcv-3" value="" style="edgeStyle=orthogonalEdgeStyle;rounded=0;orthogonalLoop=1;jettySize=auto;html=1;" parent="1" source="DVrDfldoRwxVg5q-NJcv-1" edge="1">
          <mxGeometry relative="1" as="geometry">
            <mxPoint x="425" y="160" as="targetPoint" />
          </mxGeometry>
        </mxCell>
        <mxCell id="DVrDfldoRwxVg5q-NJcv-1" value="User requests a password change" style="rounded=1;whiteSpace=wrap;html=1;" parent="1" vertex="1">
          <mxGeometry x="365" y="50" width="120" height="60" as="geometry" />
        </mxCell>
        <mxCell id="DVrDfldoRwxVg5q-NJcv-6" value="" style="edgeStyle=orthogonalEdgeStyle;rounded=0;orthogonalLoop=1;jettySize=auto;html=1;" parent="1" source="DVrDfldoRwxVg5q-NJcv-4" target="DVrDfldoRwxVg5q-NJcv-5" edge="1">
          <mxGeometry relative="1" as="geometry" />
        </mxCell>
        <mxCell id="DVrDfldoRwxVg5q-NJcv-4" value="Retrieve old sym. key from server" style="rounded=0;whiteSpace=wrap;html=1;" parent="1" vertex="1">
          <mxGeometry x="365" y="161" width="120" height="60" as="geometry" />
        </mxCell>
        <mxCell id="DVrDfldoRwxVg5q-NJcv-8" value="" style="edgeStyle=orthogonalEdgeStyle;rounded=0;orthogonalLoop=1;jettySize=auto;html=1;" parent="1" source="DVrDfldoRwxVg5q-NJcv-5" edge="1">
          <mxGeometry relative="1" as="geometry">
            <mxPoint x="425" y="380" as="targetPoint" />
          </mxGeometry>
        </mxCell>
        <mxCell id="DVrDfldoRwxVg5q-NJcv-5" value="Process new sym. key like the register phase" style="rounded=0;whiteSpace=wrap;html=1;" parent="1" vertex="1">
          <mxGeometry x="365" y="270" width="120" height="60" as="geometry" />
        </mxCell>
        <mxCell id="DVrDfldoRwxVg5q-NJcv-30" value="" style="edgeStyle=orthogonalEdgeStyle;rounded=0;orthogonalLoop=1;jettySize=auto;html=1;" parent="1" source="DVrDfldoRwxVg5q-NJcv-11" target="DVrDfldoRwxVg5q-NJcv-29" edge="1">
          <mxGeometry relative="1" as="geometry" />
        </mxCell>
        <mxCell id="DVrDfldoRwxVg5q-NJcv-32" value="" style="edgeStyle=orthogonalEdgeStyle;rounded=0;orthogonalLoop=1;jettySize=auto;html=1;" parent="1" source="DVrDfldoRwxVg5q-NJcv-29" target="DVrDfldoRwxVg5q-NJcv-31" edge="1">
          <mxGeometry relative="1" as="geometry" />
        </mxCell>
        <mxCell id="DVrDfldoRwxVg5q-NJcv-29" value="Send new keys, metadata and data to the server" style="rounded=0;whiteSpace=wrap;html=1;" parent="1" vertex="1">
          <mxGeometry x="366" y="670" width="120" height="60" as="geometry" />
        </mxCell>
        <mxCell id="DVrDfldoRwxVg5q-NJcv-31" value="Password successfuly changed" style="rounded=1;whiteSpace=wrap;html=1;" parent="1" vertex="1">
          <mxGeometry x="366" y="780" width="120" height="60" as="geometry" />
        </mxCell>
        <mxCell id="DVrDfldoRwxVg5q-NJcv-33" value="" style="group" parent="1" vertex="1" connectable="0">
          <mxGeometry x="188" y="380" width="475" height="240" as="geometry" />
        </mxCell>
        <mxCell id="DVrDfldoRwxVg5q-NJcv-11" value="Data processing&lt;br&gt;&lt;br&gt;&lt;br&gt;&lt;br&gt;&lt;br&gt;&lt;br&gt;&lt;br&gt;&lt;br&gt;&lt;br&gt;&lt;br&gt;&lt;br&gt;&lt;br&gt;&lt;br&gt;&lt;br&gt;&lt;br&gt;" style="rounded=0;whiteSpace=wrap;html=1;align=left;" parent="DVrDfldoRwxVg5q-NJcv-33" vertex="1">
          <mxGeometry width="475" height="240" as="geometry" />
        </mxCell>
        <mxCell id="DVrDfldoRwxVg5q-NJcv-13" value="Replace new sym. key in the metadata" style="rounded=0;whiteSpace=wrap;html=1;" parent="DVrDfldoRwxVg5q-NJcv-33" vertex="1">
          <mxGeometry x="53" y="45" width="120" height="60" as="geometry" />
        </mxCell>
        <mxCell id="DVrDfldoRwxVg5q-NJcv-14" value="Decrypt all the data in root folder with old sym. key" style="rounded=0;whiteSpace=wrap;html=1;" parent="DVrDfldoRwxVg5q-NJcv-33" vertex="1">
          <mxGeometry x="193" y="45" width="120" height="60" as="geometry" />
        </mxCell>
        <mxCell id="DVrDfldoRwxVg5q-NJcv-16" value="" style="edgeStyle=orthogonalEdgeStyle;rounded=0;orthogonalLoop=1;jettySize=auto;html=1;" parent="DVrDfldoRwxVg5q-NJcv-33" source="DVrDfldoRwxVg5q-NJcv-13" target="DVrDfldoRwxVg5q-NJcv-14" edge="1">
          <mxGeometry relative="1" as="geometry" />
        </mxCell>
        <mxCell id="DVrDfldoRwxVg5q-NJcv-15" value="Encrypt all the data in the root folder with new sym. key" style="rounded=0;whiteSpace=wrap;html=1;" parent="DVrDfldoRwxVg5q-NJcv-33" vertex="1">
          <mxGeometry x="333" y="45" width="120" height="60" as="geometry" />
        </mxCell>
        <mxCell id="DVrDfldoRwxVg5q-NJcv-17" value="" style="edgeStyle=orthogonalEdgeStyle;rounded=0;orthogonalLoop=1;jettySize=auto;html=1;" parent="DVrDfldoRwxVg5q-NJcv-33" source="DVrDfldoRwxVg5q-NJcv-14" target="DVrDfldoRwxVg5q-NJcv-15" edge="1">
          <mxGeometry relative="1" as="geometry" />
        </mxCell>
        <mxCell id="DVrDfldoRwxVg5q-NJcv-18" value="Is a subfolder shared" style="rhombus;whiteSpace=wrap;html=1;" parent="DVrDfldoRwxVg5q-NJcv-33" vertex="1">
          <mxGeometry x="348" y="135" width="90" height="90" as="geometry" />
        </mxCell>
        <mxCell id="DVrDfldoRwxVg5q-NJcv-19" value="" style="edgeStyle=orthogonalEdgeStyle;rounded=0;orthogonalLoop=1;jettySize=auto;html=1;" parent="DVrDfldoRwxVg5q-NJcv-33" source="DVrDfldoRwxVg5q-NJcv-15" target="DVrDfldoRwxVg5q-NJcv-18" edge="1">
          <mxGeometry relative="1" as="geometry" />
        </mxCell>
        <mxCell id="DVrDfldoRwxVg5q-NJcv-20" value="Update shared metadata of this folder in root folder&lt;br&gt;by using other people public key" style="rounded=0;whiteSpace=wrap;html=1;" parent="DVrDfldoRwxVg5q-NJcv-33" vertex="1">
          <mxGeometry x="123" y="150" width="175" height="60" as="geometry" />
        </mxCell>
        <mxCell id="DVrDfldoRwxVg5q-NJcv-21" value="" style="edgeStyle=orthogonalEdgeStyle;rounded=0;orthogonalLoop=1;jettySize=auto;html=1;" parent="DVrDfldoRwxVg5q-NJcv-33" source="DVrDfldoRwxVg5q-NJcv-18" target="DVrDfldoRwxVg5q-NJcv-20" edge="1">
          <mxGeometry relative="1" as="geometry" />
        </mxCell>
        <mxCell id="DVrDfldoRwxVg5q-NJcv-22" value="YES" style="edgeLabel;html=1;align=center;verticalAlign=middle;resizable=0;points=[];" parent="DVrDfldoRwxVg5q-NJcv-21" vertex="1" connectable="0">
          <mxGeometry x="-0.5248" y="2" relative="1" as="geometry">
            <mxPoint x="-8" y="-11" as="offset" />
          </mxGeometry>
        </mxCell>
        <mxCell id="DVrDfldoRwxVg5q-NJcv-25" value="" style="ellipse;html=1;shape=startState;fillColor=#000000;strokeColor=#000000;" parent="DVrDfldoRwxVg5q-NJcv-33" vertex="1">
          <mxGeometry y="60" width="30" height="30" as="geometry" />
        </mxCell>
        <mxCell id="DVrDfldoRwxVg5q-NJcv-26" value="" style="edgeStyle=orthogonalEdgeStyle;html=1;verticalAlign=bottom;endArrow=open;endSize=8;strokeColor=#000000;rounded=0;entryX=0;entryY=0.5;entryDx=0;entryDy=0;" parent="DVrDfldoRwxVg5q-NJcv-33" source="DVrDfldoRwxVg5q-NJcv-25" target="DVrDfldoRwxVg5q-NJcv-13" edge="1">
          <mxGeometry relative="1" as="geometry">
            <mxPoint x="52.999999999999886" y="60" as="targetPoint" />
          </mxGeometry>
        </mxCell>
        <mxCell id="DVrDfldoRwxVg5q-NJcv-27" value="" style="ellipse;html=1;shape=endState;fillColor=#000000;strokeColor=#000000;" parent="DVrDfldoRwxVg5q-NJcv-33" vertex="1">
          <mxGeometry x="63" y="165" width="30" height="30" as="geometry" />
        </mxCell>
        <mxCell id="DVrDfldoRwxVg5q-NJcv-28" value="" style="edgeStyle=orthogonalEdgeStyle;rounded=0;orthogonalLoop=1;jettySize=auto;html=1;" parent="DVrDfldoRwxVg5q-NJcv-33" source="DVrDfldoRwxVg5q-NJcv-20" target="DVrDfldoRwxVg5q-NJcv-27" edge="1">
          <mxGeometry relative="1" as="geometry" />
        </mxCell>
      </root>
    </mxGraphModel>
  </diagram>
  <diagram id="m-uwGu8Kj0eq6n6vcCHk" name="Page-2">
    <mxGraphModel dx="1434" dy="779" grid="1" gridSize="10" guides="1" tooltips="1" connect="1" arrows="1" fold="1" page="1" pageScale="1" pageWidth="850" pageHeight="1100" math="0" shadow="0">
      <root>
        <mxCell id="0" />
        <mxCell id="1" parent="0" />
        <mxCell id="xWiwJyZHwr7bb04JmY8Y-1" value="" style="rounded=0;whiteSpace=wrap;html=1;fillColor=none;" parent="1" vertex="1">
          <mxGeometry x="70" y="20" width="780" height="630" as="geometry" />
        </mxCell>
        <mxCell id="xWiwJyZHwr7bb04JmY8Y-2" value="Client" style="shape=umlLifeline;perimeter=lifelinePerimeter;whiteSpace=wrap;html=1;container=1;dropTarget=0;collapsible=0;recursiveResize=0;outlineConnect=0;portConstraint=eastwest;newEdgeStyle={&quot;edgeStyle&quot;:&quot;elbowEdgeStyle&quot;,&quot;elbow&quot;:&quot;vertical&quot;,&quot;curved&quot;:0,&quot;rounded&quot;:0};" parent="1" vertex="1">
          <mxGeometry x="200" y="90" width="100" height="500" as="geometry" />
        </mxCell>
        <mxCell id="xWiwJyZHwr7bb04JmY8Y-3" value="Server" style="shape=umlLifeline;perimeter=lifelinePerimeter;whiteSpace=wrap;html=1;container=1;dropTarget=0;collapsible=0;recursiveResize=0;outlineConnect=0;portConstraint=eastwest;newEdgeStyle={&quot;edgeStyle&quot;:&quot;elbowEdgeStyle&quot;,&quot;elbow&quot;:&quot;vertical&quot;,&quot;curved&quot;:0,&quot;rounded&quot;:0};" parent="1" vertex="1">
          <mxGeometry x="600" y="90" width="100" height="490" as="geometry" />
        </mxCell>
        <mxCell id="xWiwJyZHwr7bb04JmY8Y-4" value="" style="html=1;points=[[0,0,0,0,5],[0,1,0,0,-5],[1,0,0,0,5],[1,1,0,0,-5]];perimeter=orthogonalPerimeter;outlineConnect=0;targetShapes=umlLifeline;portConstraint=eastwest;newEdgeStyle={&quot;curved&quot;:0,&quot;rounded&quot;:0};" parent="xWiwJyZHwr7bb04JmY8Y-3" vertex="1">
          <mxGeometry x="45" y="350" width="10" height="120" as="geometry" />
        </mxCell>
        <mxCell id="xWiwJyZHwr7bb04JmY8Y-5" value="Initiates change" style="html=1;verticalAlign=bottom;startArrow=oval;startFill=1;endArrow=block;startSize=8;curved=0;rounded=0;" parent="1" edge="1">
          <mxGeometry y="61" width="60" relative="1" as="geometry">
            <mxPoint x="246.0999999999999" y="170" as="sourcePoint" />
            <mxPoint x="246.0999999999999" y="170" as="targetPoint" />
            <mxPoint x="-60" y="-10" as="offset" />
          </mxGeometry>
        </mxCell>
        <mxCell id="xWiwJyZHwr7bb04JmY8Y-6" value="" style="html=1;verticalAlign=bottom;startArrow=oval;startFill=1;endArrow=block;startSize=8;curved=0;rounded=0;" parent="1" target="xWiwJyZHwr7bb04JmY8Y-7" edge="1">
          <mxGeometry width="60" relative="1" as="geometry">
            <mxPoint x="130" y="160" as="sourcePoint" />
            <mxPoint x="249" y="160" as="targetPoint" />
          </mxGeometry>
        </mxCell>
        <mxCell id="xWiwJyZHwr7bb04JmY8Y-24" value="New Master Password" style="edgeLabel;html=1;align=center;verticalAlign=middle;resizable=0;points=[];" parent="xWiwJyZHwr7bb04JmY8Y-6" vertex="1" connectable="0">
          <mxGeometry x="-0.287" y="1" relative="1" as="geometry">
            <mxPoint x="11" y="15" as="offset" />
          </mxGeometry>
        </mxCell>
        <mxCell id="xWiwJyZHwr7bb04JmY8Y-7" value="" style="html=1;points=[[0,0,0,0,5],[0,1,0,0,-5],[1,0,0,0,5],[1,1,0,0,-5]];perimeter=orthogonalPerimeter;outlineConnect=0;targetShapes=umlLifeline;portConstraint=eastwest;newEdgeStyle={&quot;curved&quot;:0,&quot;rounded&quot;:0};" parent="1" vertex="1">
          <mxGeometry x="245" y="150" width="10" height="430" as="geometry" />
        </mxCell>
        <mxCell id="xWiwJyZHwr7bb04JmY8Y-18" value="User" style="shape=umlActor;verticalLabelPosition=bottom;verticalAlign=top;html=1;" parent="1" vertex="1">
          <mxGeometry x="84" y="130" width="30" height="60" as="geometry" />
        </mxCell>
        <mxCell id="xWiwJyZHwr7bb04JmY8Y-19" value="" style="endArrow=classic;html=1;rounded=0;" parent="1" edge="1">
          <mxGeometry width="50" height="50" relative="1" as="geometry">
            <mxPoint x="255" y="376" as="sourcePoint" />
            <mxPoint x="255" y="422" as="targetPoint" />
            <Array as="points">
              <mxPoint x="280" y="376" />
              <mxPoint x="280" y="392" />
              <mxPoint x="280" y="422" />
            </Array>
          </mxGeometry>
        </mxCell>
        <mxCell id="xWiwJyZHwr7bb04JmY8Y-20" value="Retrieve from session&lt;br&gt;root folder symmetric&lt;br&gt;key value and encrypt&lt;br&gt;with new master&lt;br&gt;password hash" style="edgeLabel;html=1;align=center;verticalAlign=middle;resizable=0;points=[];" parent="xWiwJyZHwr7bb04JmY8Y-19" vertex="1" connectable="0">
          <mxGeometry x="-0.0183" y="1" relative="1" as="geometry">
            <mxPoint x="56" y="4" as="offset" />
          </mxGeometry>
        </mxCell>
        <mxCell id="xWiwJyZHwr7bb04JmY8Y-21" value="&lt;font style=&quot;font-size: 20px;&quot;&gt;&lt;b&gt;Password change&lt;/b&gt;&lt;/font&gt;" style="text;html=1;strokeColor=none;fillColor=none;align=center;verticalAlign=middle;whiteSpace=wrap;rounded=0;" parent="1" vertex="1">
          <mxGeometry x="71" y="30" width="190" height="30" as="geometry" />
        </mxCell>
        <mxCell id="xWiwJyZHwr7bb04JmY8Y-25" value="" style="endArrow=classic;html=1;rounded=0;" parent="1" edge="1">
          <mxGeometry width="50" height="50" relative="1" as="geometry">
            <mxPoint x="255" y="233" as="sourcePoint" />
            <mxPoint x="255" y="279" as="targetPoint" />
            <Array as="points">
              <mxPoint x="280" y="233" />
              <mxPoint x="280" y="249" />
              <mxPoint x="280" y="279" />
            </Array>
          </mxGeometry>
        </mxCell>
        <mxCell id="xWiwJyZHwr7bb04JmY8Y-26" value="Processes&lt;br style=&quot;border-color: var(--border-color);&quot;&gt;Stretched Master Key&lt;br style=&quot;border-color: var(--border-color);&quot;&gt;(HKDF)" style="edgeLabel;html=1;align=center;verticalAlign=middle;resizable=0;points=[];" parent="xWiwJyZHwr7bb04JmY8Y-25" vertex="1" connectable="0">
          <mxGeometry x="-0.0183" y="1" relative="1" as="geometry">
            <mxPoint x="59" y="-1" as="offset" />
          </mxGeometry>
        </mxCell>
        <mxCell id="xWiwJyZHwr7bb04JmY8Y-27" value="" style="endArrow=classic;html=1;rounded=0;" parent="1" edge="1">
          <mxGeometry width="50" height="50" relative="1" as="geometry">
            <mxPoint x="255" y="165" as="sourcePoint" />
            <mxPoint x="255" y="211" as="targetPoint" />
            <Array as="points">
              <mxPoint x="280" y="165" />
              <mxPoint x="280" y="181" />
              <mxPoint x="280" y="211" />
            </Array>
          </mxGeometry>
        </mxCell>
        <mxCell id="xWiwJyZHwr7bb04JmY8Y-28" value="Processes&lt;br&gt;Master Key&lt;br&gt;(Argon2id)" style="edgeLabel;html=1;align=center;verticalAlign=middle;resizable=0;points=[];" parent="xWiwJyZHwr7bb04JmY8Y-27" vertex="1" connectable="0">
          <mxGeometry x="-0.0183" y="1" relative="1" as="geometry">
            <mxPoint x="49" y="-1" as="offset" />
          </mxGeometry>
        </mxCell>
        <mxCell id="xWiwJyZHwr7bb04JmY8Y-29" value="" style="endArrow=classic;html=1;rounded=0;" parent="1" edge="1">
          <mxGeometry width="50" height="50" relative="1" as="geometry">
            <mxPoint x="255" y="297" as="sourcePoint" />
            <mxPoint x="255" y="343" as="targetPoint" />
            <Array as="points">
              <mxPoint x="280" y="297" />
              <mxPoint x="280" y="313" />
              <mxPoint x="280" y="343" />
            </Array>
          </mxGeometry>
        </mxCell>
        <mxCell id="xWiwJyZHwr7bb04JmY8Y-30" value="&lt;div&gt;Processes&lt;/div&gt;&lt;div&gt;Master Password Hash&lt;/div&gt;&lt;div&gt;(Argon2id)&lt;/div&gt;" style="edgeLabel;html=1;align=center;verticalAlign=middle;resizable=0;points=[];" parent="xWiwJyZHwr7bb04JmY8Y-29" vertex="1" connectable="0">
          <mxGeometry x="-0.0183" y="1" relative="1" as="geometry">
            <mxPoint x="62" y="-1" as="offset" />
          </mxGeometry>
        </mxCell>
        <mxCell id="xWiwJyZHwr7bb04JmY8Y-31" value="" style="endArrow=classic;html=1;rounded=0;" parent="1" edge="1">
          <mxGeometry width="50" height="50" relative="1" as="geometry">
            <mxPoint x="255" y="474" as="sourcePoint" />
            <mxPoint x="645" y="474" as="targetPoint" />
          </mxGeometry>
        </mxCell>
        <mxCell id="xWiwJyZHwr7bb04JmY8Y-32" value="Send username, new protected symmetric key &lt;br&gt;and new master password hash" style="edgeLabel;html=1;align=center;verticalAlign=middle;resizable=0;points=[];" parent="xWiwJyZHwr7bb04JmY8Y-31" vertex="1" connectable="0">
          <mxGeometry x="-0.4256" y="-1" relative="1" as="geometry">
            <mxPoint x="80" y="-19" as="offset" />
          </mxGeometry>
        </mxCell>
        <mxCell id="xWiwJyZHwr7bb04JmY8Y-33" value="" style="endArrow=classic;html=1;rounded=0;" parent="1" edge="1">
          <mxGeometry width="50" height="50" relative="1" as="geometry">
            <mxPoint x="655" y="482" as="sourcePoint" />
            <mxPoint x="655" y="528" as="targetPoint" />
            <Array as="points">
              <mxPoint x="680" y="482" />
              <mxPoint x="680" y="498" />
              <mxPoint x="680" y="528" />
            </Array>
          </mxGeometry>
        </mxCell>
        <mxCell id="xWiwJyZHwr7bb04JmY8Y-34" value="Master Password Hash&lt;br&gt;Server hashing&lt;br&gt;and&lt;br&gt;&amp;nbsp;update user&#39;s metadata" style="edgeLabel;html=1;align=center;verticalAlign=middle;resizable=0;points=[];" parent="xWiwJyZHwr7bb04JmY8Y-33" vertex="1" connectable="0">
          <mxGeometry x="-0.0183" y="1" relative="1" as="geometry">
            <mxPoint x="59" y="2" as="offset" />
          </mxGeometry>
        </mxCell>
        <mxCell id="xWiwJyZHwr7bb04JmY8Y-35" value="" style="endArrow=none;html=1;rounded=0;endFill=0;startArrow=classic;startFill=1;" parent="1" edge="1">
          <mxGeometry width="50" height="50" relative="1" as="geometry">
            <mxPoint x="255" y="550" as="sourcePoint" />
            <mxPoint x="645" y="550" as="targetPoint" />
          </mxGeometry>
        </mxCell>
        <mxCell id="xWiwJyZHwr7bb04JmY8Y-36" value="Password change successful" style="edgeLabel;html=1;align=center;verticalAlign=middle;resizable=0;points=[];" parent="xWiwJyZHwr7bb04JmY8Y-35" vertex="1" connectable="0">
          <mxGeometry x="-0.4256" y="-1" relative="1" as="geometry">
            <mxPoint x="80" y="-13" as="offset" />
          </mxGeometry>
        </mxCell>
      </root>
    </mxGraphModel>
  </diagram>
</mxfile>
